<svg
  xmlns="http://www.w3.org/2000/svg"
  version="1.1"
  xmlns:xlink="http://www.w3.org/1999/xlink"
  xmlns:svgjs="http://svgjs.dev/svgjs"
  width="2000"
  height="2028"
  viewBox="0 0 2000 2028"
><g transform="matrix(1,0,0,1,1.1151079136689077,-2.8694042553187273)"><svg
      viewBox="0 0 139 141"
      data-background-color="#ffffff"
      preserveAspectRatio="xMidYMid meet"
      height="2028"
      width="2000"
      xmlns="http://www.w3.org/2000/svg"
      xmlns:xlink="http://www.w3.org/1999/xlink"
    ><g
        id="tight-bounds"
        transform="matrix(1,0,0,1,-0.07749999999998636,0.19949999999997203)"
      ><svg
          viewBox="0 0 139.15479085714287 140.60052000000002"
          height="140.60052000000002"
          width="139.15479085714287"
        ><g><svg
              viewBox="0 0 139.15479085714287 140.60052000000002"
              height="140.60052000000002"
              width="139.15479085714287"
            ><g><svg
                  viewBox="0 0 139.15479085714287 140.60052000000002"
                  height="140.60052000000002"
                  width="139.15479085714287"
                ><g><path
                      d="M0 140.601v-140.601h139.155v140.601z"
                      fill="#1ebbd7"
                      stroke="transparent"
                      stroke-width="0"
                      rx="0%"
                      data-fill-palette-color="tertiary"
                    /><path
                      d="M3.283 137.317v-134.034h132.589v134.034z"
                      fill="#ffffff"
                      stroke="transparent"
                      stroke-width="0"
                      rx="0%"
                      data-fill-palette-color="quaternary"
                    /><path
                      d="M9.85 130.751v-120.901h119.455v120.901z"
                      fill="#1ebbd7"
                      stroke="transparent"
                      stroke-width="0"
                      data-fill-palette-color="tertiary"
                    /></g><g
                    transform="matrix(1,0,0,1,19.69974,19.69974)"
                    id="textblocktransform"
                  ><svg
                      viewBox="0 0 99.75531085714287 101.20104"
                      height="101.20104"
                      width="99.75531085714287"
                      id="textblock"
                    ><g><svg
                          viewBox="0 0 99.75531085714287 101.20104"
                          height="101.20104"
                          width="99.75531085714287"
                        ><g transform="matrix(1,0,0,1,0,0)"><svg
                              width="99.75531085714287"
                              viewBox="2.8499999046325684 -35 34.5 35"
                              height="101.20104"
                              data-palette-color="#ffffff"
                            ><path
                                d="M30.85-18.3Q33.95-17.15 35.65-14.95 37.35-12.75 37.35-9.65L37.35-9.65Q37.35-5.05 33.55-2.53 29.75 0 22.55 0L22.55 0 2.85 0 2.85-35 21.55-35Q28.55-35 32.13-32.5 35.7-30 35.7-25.85L35.7-25.85Q35.7-23.4 34.48-21.45 33.25-19.5 30.85-18.3L30.85-18.3ZM19.95-26.75L14.45-26.75 14.45-21.55 19.95-21.55Q23.8-21.55 23.8-24.15L23.8-24.15Q23.8-26.75 19.95-26.75L19.95-26.75ZM21.55-8.25Q25.45-8.25 25.45-11L25.45-11Q25.45-13.75 21.55-13.75L21.55-13.75 14.45-13.75 14.45-8.25 21.55-8.25Z"
                                opacity="1"
                                transform="matrix(1,0,0,1,0,0)"
                                fill="#ffffff"
                                class="undefined-text-0"
                                data-fill-palette-color="quaternary"
                                id="text-0"
                              /></svg></g></svg></g></svg></g></svg></g><g
              /></svg></g><defs /></svg><rect
          width="139.15479085714287"
          height="140.60052000000002"
          fill="none"
          stroke="none"
          visibility="hidden"
        /></g></svg></g></svg>
